<svg width="22" height="20" viewBox="0 0 22 20" fill="none" xmlns="http://www.w3.org/2000/svg">
<path opacity="0.4" d="M12.0452 0.249878C13.8818 0.24987 15.3214 0.249863 16.4635 0.373606C17.6291 0.499884 18.5734 0.762202 19.3798 1.34803C19.8679 1.70269 20.2972 2.13197 20.6518 2.62011C21.2377 3.42644 21.5 4.37082 21.6263 5.53635C21.75 6.67847 21.75 8.11804 21.75 9.95453V9.95461V10.0452V10.0452C21.75 11.8817 21.75 13.3213 21.6263 14.4634C21.5 15.6289 21.2377 16.5733 20.6518 17.3796C20.2972 17.8678 19.8679 18.2971 19.3798 18.6517C18.5734 19.2376 17.6291 19.4999 16.4635 19.6262C15.3214 19.7499 13.8818 19.7499 12.0453 19.7499H12.0453H9.95473H9.95465C8.11817 19.7499 6.67859 19.7499 5.53648 19.6262C4.37094 19.4999 3.42656 19.2376 2.62024 18.6517C2.13209 18.2971 1.70281 17.8678 1.34815 17.3796C0.762324 16.5733 0.500006 15.6289 0.373728 14.4634C0.249985 13.3213 0.249992 11.8817 0.25 10.0451V9.95463C0.249992 8.11809 0.249985 6.67849 0.373728 5.53635C0.500006 4.37082 0.762324 3.42644 1.34815 2.62011C1.70281 2.13197 2.13209 1.70269 2.62024 1.34803C3.42656 0.762202 4.37094 0.499884 5.53648 0.373606C6.67861 0.249863 8.11821 0.24987 9.95475 0.249878H12.0452Z" fill="#C497FF"/>
<path fill-rule="evenodd" clip-rule="evenodd" d="M12 6.99988C12 6.44759 12.4477 5.99988 13 5.99988H17C17.5523 5.99988 18 6.44759 18 6.99988C18 7.55216 17.5523 7.99988 17 7.99988H13C12.4477 7.99988 12 7.55216 12 6.99988Z" fill="#C497FF"/>
<path fill-rule="evenodd" clip-rule="evenodd" d="M12 10.4999C12 9.94759 12.4477 9.49988 13 9.49988H16C16.5523 9.49988 17 9.94759 17 10.4999C17 11.0522 16.5523 11.4999 16 11.4999H13C12.4477 11.4999 12 11.0522 12 10.4999Z" fill="#C497FF"/>
<path d="M3.68219 14.679C3.30705 14.5034 3.14531 14.0569 3.32093 13.6818C4.08074 12.0587 5.82412 11.2745 7.45929 11.2503C9.10359 11.2261 10.8767 11.967 11.6794 13.6818C11.8551 14.0569 11.6933 14.5034 11.3182 14.679C11.2151 14.7272 11.1067 14.75 11 14.7499H4.00033C3.89363 14.75 3.78522 14.7272 3.68219 14.679Z" fill="#C497FF"/>
<path d="M4.75 6.99976C4.75 5.48097 5.98122 4.24976 7.5 4.24976C9.01878 4.24976 10.25 5.48097 10.25 6.99976C10.25 8.51854 9.01878 9.74976 7.5 9.74976C5.98122 9.74976 4.75 8.51854 4.75 6.99976Z" fill="#C497FF"/>
</svg>
