<svg width="22" height="22" viewBox="0 0 22 22" fill="none" xmlns="http://www.w3.org/2000/svg">
<path opacity="0.5" d="M9.59774 21.75C9.31814 21.7181 9.02411 21.6444 8.74975 21.4469C8.47551 21.2495 8.31274 20.9946 8.19424 20.7402C8.0878 20.5117 7.55153 18.9112 7.55153 18.9112C7.55153 18.9112 7.28958 18.4678 7.07443 18.3266C6.65193 18.0495 6.22563 17.9894 5.94789 18.0495C5.94789 18.0495 4.06643 18.5792 3.80071 18.6213C3.50519 18.6681 3.18191 18.674 2.84761 18.5385C2.51341 18.4031 2.28601 18.1739 2.10697 17.935L0.668437 15.4526C0.55583 15.1934 0.472757 14.9008 0.508329 14.5633C0.543903 14.2258 0.686193 13.9568 0.850435 13.7266C0.997913 13.5199 2.24083 12.1363 2.45588 11.898C2.45588 11.898 2.71591 11.4993 2.71591 10.9998C2.71591 10.4151 2.45586 10.1019 2.45586 10.1019C2.45586 10.1019 0.99791 8.47998 0.850432 8.2733C0.68619 8.04311 0.543901 7.7741 0.508327 7.4366C0.472758 7.09914 0.555827 6.80652 0.668434 6.54733C0.769565 6.31456 2.10699 4.06487 2.10699 4.06487C2.28602 3.82595 2.51342 3.59685 2.8476 3.46138C3.18189 3.32586 3.50518 3.33183 3.80069 3.3786C4.06641 3.42064 5.61796 3.85698 5.94794 3.95035C5.94794 3.95035 6.47727 4.06487 7.07438 3.67329C7.28956 3.53218 7.45628 3.32813 7.55157 3.08872C7.55157 3.08872 8.0878 1.48829 8.19424 1.25981C8.31274 1.00543 8.47551 0.750473 8.74975 0.553082C9.02411 0.355603 9.31814 0.281878 9.59774 0.25L12.4023 0.25C12.6819 0.281878 12.9759 0.355603 13.2503 0.553082C13.5245 0.750473 13.6873 1.00543 13.8058 1.25981C13.9122 1.48829 14.4484 3.08872 14.4484 3.08872C14.5437 3.32813 14.7104 3.53218 14.9256 3.67329C15.5227 4.06487 16.0521 3.95035 16.0521 3.95035C16.382 3.85698 17.9336 3.42064 18.1993 3.3786C18.4948 3.33183 18.8181 3.32586 19.1524 3.46138C19.4866 3.59685 19.714 3.82595 19.893 4.06487C19.893 4.06487 21.2304 6.31456 21.3316 6.54733C21.4442 6.80652 21.5272 7.09914 21.4917 7.4366C21.4561 7.7741 21.3138 8.04311 21.1496 8.2733C21.0021 8.47998 19.5441 10.1019 19.5441 10.1019C19.5441 10.1019 19.2841 10.4151 19.2841 10.9998C19.2841 11.4993 19.5441 11.898 19.5441 11.898C19.7592 12.1363 21.0021 13.5199 21.1496 13.7266C21.3138 13.9568 21.4561 14.2258 21.4917 14.5633C21.5272 14.9008 21.4442 15.1934 21.3316 15.4526L19.893 17.935C19.714 18.1739 19.4866 18.4031 19.1524 18.5385C18.8181 18.674 18.4948 18.6681 18.1993 18.6213C17.9336 18.5792 16.0521 18.0495 16.0521 18.0495C15.7744 17.9894 15.3481 18.0495 14.9256 18.3266C14.7104 18.4678 14.4485 18.9112 14.4485 18.9112C14.4485 18.9112 13.9122 20.5117 13.8058 20.7402C13.6873 20.9946 13.5245 21.2495 13.2503 21.4469C12.9759 21.6444 12.6819 21.7181 12.4023 21.75H9.59774Z" fill="#B251FF"/>
<path d="M11 7.75C9.20507 7.75 7.75 9.20507 7.75 11C7.75 11.2199 7.7752 11.4513 7.8164 11.6578L8.46967 11.0048C8.76256 10.7119 9.23744 10.7119 9.53033 11.0048C9.82322 11.2977 9.82322 11.7726 9.53033 12.0655L8.98618 12.6096C8.79988 12.7962 8.5573 13.0391 8.35177 13.1781C8.08635 13.3577 7.72627 13.4906 7.30028 13.3616C6.91317 13.2443 6.67642 12.9818 6.5424 12.6783C6.44649 12.4611 6.38462 12.1492 6.34194 11.934C6.28155 11.6314 6.25 11.319 6.25 11C6.25 8.37665 8.37665 6.25 11 6.25C11.6285 6.25 12.2303 6.37247 12.7814 6.59556C13.1654 6.75097 13.3506 7.18822 13.1952 7.57217C13.0398 7.95612 12.6025 8.14138 12.2186 7.98596C11.8433 7.83403 11.4324 7.75 11 7.75Z" fill="#B251FF"/>
<path d="M14.1992 10.4237L13.5923 11.0303C13.2994 11.3232 12.8246 11.3232 12.5317 11.0303C12.2388 10.7374 12.2388 10.2626 12.5317 9.96967L13.0662 9.43506C13.2556 9.24546 13.467 9.03377 13.675 8.89337C13.9439 8.71193 14.3093 8.57864 14.7394 8.71462C14.9096 8.76843 15.0737 8.85809 15.2148 8.99663C15.3521 9.13142 15.4374 9.28294 15.4937 9.41876C15.5857 9.64046 15.6408 9.95797 15.6789 10.1776C15.7257 10.4453 15.75 10.7201 15.75 11C15.75 13.6234 13.6234 15.75 11 15.75C10.3715 15.75 9.76969 15.6275 9.21859 15.4044C8.83464 15.249 8.64938 14.8118 8.8048 14.4278C8.96022 14.0439 9.39746 13.8586 9.78141 14.014C10.1567 14.166 10.5676 14.25 11 14.25C12.7949 14.25 14.25 12.7949 14.25 11C14.25 10.807 14.2311 10.6064 14.1992 10.4237Z" fill="#B251FF"/>
</svg>
