<svg width="28" height="30" viewBox="0 0 28 30" fill="none" xmlns="http://www.w3.org/2000/svg">
<path d="M7.33333 1.66659C7.33333 0.930206 6.73638 0.333252 6 0.333252C5.26362 0.333252 4.66666 0.930206 4.66666 1.66659V2.26505C5.17376 2.1042 5.71404 1.98935 6.2871 1.90606C6.6177 1.85801 6.96629 1.8196 7.33333 1.78889V1.66659Z" fill="#444444"/>
<path d="M23.3333 2.26505C22.8262 2.1042 22.286 1.98935 21.7129 1.90606C21.3823 1.85801 21.0337 1.8196 20.6667 1.78889V1.66659C20.6667 0.930206 21.2636 0.333252 22 0.333252C22.7364 0.333252 23.3333 0.930206 23.3333 1.66659V2.26505Z" fill="#444444"/>
<path fill-rule="evenodd" clip-rule="evenodd" d="M15.3717 1.66675H12.6283C10.0306 1.66671 7.93522 1.66667 6.2871 1.90622C4.56713 2.15622 3.1424 2.6905 2.02403 3.89955C0.919322 5.09383 0.443717 6.59037 0.218879 8.39829C-4.6591e-05 10.1587 -2.65613e-05 12.4055 -1.36865e-06 15.2319V16.1016C-2.65613e-05 18.928 -4.6591e-05 21.1748 0.218879 22.9352C0.443717 24.7431 0.919322 26.2397 2.02403 27.434C3.1424 28.643 4.56713 29.1773 6.2871 29.4273C7.93522 29.6668 10.0306 29.6668 12.6283 29.6668H15.3717C17.9694 29.6668 20.0648 29.6668 21.7129 29.4273C23.4329 29.1773 24.8576 28.643 25.976 27.434C27.0807 26.2397 27.5563 24.7431 27.7811 22.9352C28 21.1748 28 18.928 28 16.1016V15.232C28 12.4055 28 10.1587 27.7811 8.39829C27.5563 6.59037 27.0807 5.09383 25.976 3.89955C24.8576 2.6905 23.4329 2.15622 21.7129 1.90622C20.0648 1.66667 17.9694 1.66671 15.3717 1.66675ZM3.9971 11.0001C3.38561 11.0001 3.07986 11.0001 2.88513 11.1923C2.69041 11.3845 2.6865 11.6864 2.67867 12.2901C2.66703 13.1876 2.66667 14.1923 2.66667 15.3244V16.0091C2.66667 18.9489 2.6691 21.0296 2.86516 22.6061C3.05769 24.1543 3.41684 25.0126 3.98162 25.6232C4.53274 26.219 5.28626 26.5871 6.67067 26.7883C8.10477 26.9968 10.0057 27.0001 12.7333 27.0001H15.2667C17.9943 27.0001 19.8952 26.9968 21.3293 26.7883C22.7137 26.5871 23.4673 26.219 24.0184 25.6232C24.5832 25.0126 24.9423 24.1543 25.1348 22.6061C25.3309 21.0296 25.3333 18.9489 25.3333 16.0091V15.3244C25.3333 14.1923 25.333 13.1876 25.3213 12.2901C25.3135 11.6864 25.3096 11.3845 25.1149 11.1923C24.9201 11.0001 24.6144 11.0001 24.0029 11.0001H3.9971Z" fill="#444444"/>
<path fill-rule="evenodd" clip-rule="evenodd" d="M7 16.3334C7 15.4129 7.74619 14.6667 8.66666 14.6667H8.67863C9.5991 14.6667 10.3453 15.4129 10.3453 16.3334C10.3453 17.2539 9.5991 18.0001 8.67863 18.0001H8.66666C7.74619 18.0001 7 17.2539 7 16.3334ZM12.3274 16.3334C12.3274 15.4129 13.0735 14.6667 13.994 14.6667H14.006C14.9265 14.6667 15.6726 15.4129 15.6726 16.3334C15.6726 17.2539 14.9265 18.0001 14.006 18.0001H13.994C13.0735 18.0001 12.3274 17.2539 12.3274 16.3334ZM17.6547 16.3334C17.6547 15.4129 18.4009 14.6667 19.3214 14.6667H19.3333C20.2538 14.6667 21 15.4129 21 16.3334C21 17.2539 20.2538 18.0001 19.3333 18.0001H19.3214C18.4009 18.0001 17.6547 17.2539 17.6547 16.3334ZM7 21.6667C7 20.7463 7.74619 20.0001 8.66666 20.0001H8.67863C9.5991 20.0001 10.3453 20.7463 10.3453 21.6667C10.3453 22.5872 9.5991 23.3334 8.67863 23.3334H8.66666C7.74619 23.3334 7 22.5872 7 21.6667ZM12.3274 21.6667C12.3274 20.7463 13.0735 20.0001 13.994 20.0001H14.006C14.9265 20.0001 15.6726 20.7463 15.6726 21.6667C15.6726 22.5872 14.9265 23.3334 14.006 23.3334H13.994C13.0735 23.3334 12.3274 22.5872 12.3274 21.6667Z" fill="#444444"/>
</svg>
