<svg width="22" height="22" viewBox="0 0 22 22" fill="none" xmlns="http://www.w3.org/2000/svg">
<path opacity="0.4" d="M12.6814 0.25C14.5192 0.249984 15.9748 0.249972 17.114 0.403135C18.2864 0.560763 19.2354 0.89288 19.9838 1.64124C20.7321 2.38961 21.0642 3.33856 21.2219 4.51098C21.375 5.65018 21.375 7.1058 21.375 8.94354V8.94359V13.0564V13.0565C21.375 14.8942 21.375 16.3498 21.2219 17.489C21.0642 18.6614 20.7321 19.6104 19.9838 20.3588C19.2354 21.1071 18.2864 21.4392 17.114 21.5969C15.9748 21.75 14.5192 21.75 12.6815 21.75H12.6814H11.0686H11.0685C9.2308 21.75 7.77518 21.75 6.63598 21.5969C5.46356 21.4392 4.51461 21.1071 3.76624 20.3588C3.01788 19.6104 2.68576 18.6614 2.52814 17.489C2.37497 16.3498 2.37498 14.8942 2.375 13.0564V13.0564V8.94358V8.94357C2.37498 7.10582 2.37497 5.65019 2.52814 4.51098C2.68576 3.33856 3.01788 2.38961 3.76624 1.64124C4.51461 0.89288 5.46356 0.560763 6.63598 0.403135C7.77519 0.249972 9.23082 0.249984 11.0686 0.25H11.0686H12.6814H12.6814Z" fill="#AA68FF"/>
<path d="M9.70155 5.77512C10.0936 5.85614 10.3886 6.11643 10.5626 6.42865L10.9556 7.13357L10.9721 7.16322L10.9721 7.16323C11.1136 7.41696 11.2483 7.65852 11.3388 7.87464C11.4401 8.11668 11.5159 8.39247 11.4827 8.71083C11.4495 9.02919 11.3185 9.28341 11.1693 9.49933C11.0362 9.69213 10.8546 9.90071 10.6638 10.1198L10.6415 10.1454L9.85304 11.051C10.5522 12.1128 11.512 13.0729 12.5747 13.7727L13.4804 12.9843L13.506 12.962C13.725 12.7712 13.9336 12.5896 14.1264 12.4564C14.3423 12.3073 14.5966 12.1763 14.9149 12.1431C15.2333 12.1099 15.5091 12.1856 15.7511 12.287C15.9672 12.3775 16.2088 12.5122 16.4625 12.6537L17.1971 13.0631C17.5093 13.2372 17.7696 13.5322 17.8506 13.9242C17.9329 14.3221 17.8066 14.7047 17.5676 14.9978C16.8625 15.863 15.7084 16.4421 14.4702 16.1923C13.7775 16.0526 13.0939 15.8186 12.2783 15.3509C10.6554 14.4201 9.20455 12.9685 8.27486 11.3474C7.80715 10.5319 7.5732 9.84829 7.43347 9.15557C7.18369 7.91735 7.76272 6.7633 8.62792 6.05813C8.92108 5.81918 9.3036 5.69287 9.70155 5.77512Z" fill="#AA68FF"/>
<path fill-rule="evenodd" clip-rule="evenodd" d="M0.625 5C0.625 4.44772 1.07272 4 1.625 4L4.125 4C4.67729 4 5.125 4.44772 5.125 5C5.125 5.55229 4.67728 6 4.125 6L1.625 6C1.07272 6 0.625 5.55228 0.625 5ZM0.625 11C0.625 10.4477 1.07272 10 1.625 10L4.125 10C4.67729 10 5.125 10.4477 5.125 11C5.125 11.5523 4.67728 12 4.125 12H1.625C1.07272 12 0.625 11.5523 0.625 11ZM0.625 17C0.625 16.4477 1.07272 16 1.625 16H4.125C4.67728 16 5.125 16.4477 5.125 17C5.125 17.5523 4.67728 18 4.125 18H1.625C1.07272 18 0.625 17.5523 0.625 17Z" fill="#AA68FF"/>
</svg>
