<svg width="30" height="22" viewBox="0 0 30 22" fill="none" xmlns="http://www.w3.org/2000/svg">
<path d="M9.37921 12.4343C9.02034 12.6267 8.66864 12.828 8.41018 12.9879C7.79192 13.3493 6.62739 14.0302 5.78611 14.8853C5.2432 15.4372 4.5295 16.3547 4.39666 17.6167C4.35564 18.0064 4.37417 18.3795 4.4413 18.7339C4.50848 19.0886 4.54207 19.2659 4.45232 19.359C4.36257 19.452 4.21302 19.4293 3.91392 19.3838C2.63415 19.189 1.76929 18.4913 1.05955 17.7306C0.528848 17.1618 0.254734 16.5077 0.322718 15.808C0.38655 15.151 0.737738 14.622 1.08897 14.2352C1.64332 13.6248 2.46042 13.1075 2.94976 12.7977C3.05431 12.7315 3.14393 12.6747 3.21279 12.6286C5.05956 11.3915 7.26212 11.0265 9.31882 11.5337C9.8037 11.6533 10.0461 11.7131 10.0676 11.8835C10.089 12.0539 9.85241 12.1807 9.37921 12.4343Z" fill="#444444"/>
<path d="M8.10927 2.60788C8.3464 2.64355 8.46496 2.66138 8.52588 2.75988C8.58679 2.85838 8.54434 2.9892 8.45942 3.25085C8.24233 3.91979 8.125 4.63369 8.125 5.375C8.125 6.92494 8.6379 8.35509 9.50323 9.50497C9.66831 9.72433 9.75085 9.83402 9.72542 9.94687C9.69998 10.0597 9.59386 10.1153 9.38163 10.2264C8.81908 10.5209 8.17899 10.6875 7.5 10.6875C5.25634 10.6875 3.4375 8.86866 3.4375 6.625C3.4375 4.38134 5.25634 2.5625 7.5 2.5625C7.70707 2.5625 7.91053 2.57799 8.10927 2.60788Z" fill="#444444"/>
<path d="M20.6214 12.4343C20.9803 12.6267 21.332 12.828 21.5904 12.9879C22.2087 13.3493 23.3732 14.0302 24.2145 14.8853C24.7574 15.4372 25.4711 16.3547 25.6039 17.6167C25.645 18.0064 25.6264 18.3795 25.5593 18.7339C25.4921 19.0886 25.4585 19.2659 25.5483 19.359C25.638 19.452 25.7876 19.4293 26.0867 19.3838C27.3665 19.189 28.2313 18.4913 28.9411 17.7306C29.4718 17.1618 29.7459 16.5077 29.6779 15.808C29.6141 15.151 29.2629 14.622 28.9116 14.2352C28.3573 13.6248 27.5402 13.1075 27.0508 12.7977C26.9463 12.7315 26.8567 12.6747 26.7878 12.6286C24.941 11.3915 22.7385 11.0265 20.6818 11.5337C20.1969 11.6533 19.9545 11.7131 19.933 11.8835C19.9116 12.0539 20.1482 12.1807 20.6214 12.4343Z" fill="#444444"/>
<path d="M20.4973 9.50497C20.3322 9.72433 20.2496 9.83402 20.2751 9.94687C20.3005 10.0597 20.4066 10.1153 20.6189 10.2264C21.1814 10.5209 21.8215 10.6875 22.5005 10.6875C24.7442 10.6875 26.563 8.86866 26.563 6.625C26.563 4.38134 24.7442 2.5625 22.5005 2.5625C22.2934 2.5625 22.09 2.57799 21.8912 2.60788C21.6541 2.64355 21.5355 2.66138 21.4746 2.75988C21.4137 2.85838 21.4562 2.9892 21.5411 3.25085C21.7582 3.91979 21.8755 4.63369 21.8755 5.375C21.8755 6.92494 21.3626 8.35508 20.4973 9.50497Z" fill="#444444"/>
<path d="M9.61433 14.0916C12.9115 12.0528 17.0937 12.0528 20.3909 14.0916C20.4881 14.1517 20.6112 14.2238 20.7527 14.3065L20.7527 14.3066C21.3931 14.6812 22.4096 15.276 23.1032 15.9811C23.5388 16.4239 23.9733 17.0276 24.0526 17.7802C24.1373 18.5854 23.7956 19.3307 23.1436 19.9757C22.0666 21.0413 20.7324 21.9375 18.9831 21.9375H11.0222C9.27284 21.9375 7.93867 21.0413 6.86165 19.9757C6.20969 19.3307 5.86794 18.5854 5.95269 17.7802C6.03191 17.0276 6.46641 16.4239 6.90206 15.9811C7.59569 15.276 8.61218 14.6812 9.25251 14.3066C9.39399 14.2238 9.51711 14.1517 9.61433 14.0916Z" fill="#444444"/>
<path d="M9.68974 5.375C9.68974 2.44099 12.0682 0.0625 15.0022 0.0625C17.9363 0.0625 20.3147 2.44099 20.3147 5.375C20.3147 8.30901 17.9363 10.6875 15.0022 10.6875C12.0682 10.6875 9.68974 8.30901 9.68974 5.375Z" fill="#444444"/>
</svg>
