<svg width="30" height="30" viewBox="0 0 30 30" fill="none" xmlns="http://www.w3.org/2000/svg">
<path d="M6.49922 7.77866C6.80557 8.23819 6.68139 8.85906 6.22187 9.16541L4.5968 10.2488C3.99904 10.6473 3.60795 10.9092 3.32194 11.1412C3.05216 11.36 2.93481 11.5067 2.86146 11.6443C2.83217 11.6992 2.80562 11.7606 2.78231 11.8362L11.3991 17.0063C12.4189 17.6182 13.1211 18.0381 13.7045 18.3124C14.2675 18.5771 14.6452 18.6686 15.0005 18.6686C15.3559 18.6686 15.7336 18.5771 16.2965 18.3124C16.88 18.0381 17.5821 17.6182 18.602 17.0063L27.2187 11.8363C27.1954 11.7606 27.1688 11.6993 27.1395 11.6443C27.0662 11.5067 26.9488 11.36 26.6791 11.1412C26.393 10.9092 26.002 10.6473 25.4042 10.2488L23.7791 9.16541C23.3196 8.85906 23.1954 8.23819 23.5018 7.77866C23.8081 7.31913 24.429 7.19496 24.8885 7.50131L26.55 8.60897C27.1015 8.97657 27.5715 9.2899 27.9388 9.58778C28.3304 9.90537 28.6621 10.2489 28.9045 10.7035C29.1719 11.2052 29.2665 11.7214 29.3048 12.2811C29.3345 12.7145 29.3328 13.2287 29.3308 13.8249L29.3306 13.8575C29.325 15.537 29.3094 17.2526 29.266 18.9905L29.2641 19.0684C29.2146 21.0519 29.1747 22.652 28.9476 23.9395C28.7093 25.2907 28.2516 26.3902 27.3128 27.329C26.372 28.2698 25.2637 28.7267 23.9009 28.9648C22.6004 29.192 20.9803 29.2324 18.9688 29.2827L18.8912 29.2846C16.2898 29.3496 13.7113 29.3496 11.1098 29.2846L11.0322 29.2827C9.02075 29.2324 7.40066 29.192 6.10016 28.9648C4.7374 28.7268 3.62903 28.2699 2.68826 27.3291C1.74947 26.3902 1.29172 25.2907 1.05341 23.9395C0.826336 22.652 0.786423 21.0519 0.736947 19.0684L0.735002 18.9905C0.691622 17.2526 0.675997 15.537 0.670355 13.8575L0.670245 13.825C0.668232 13.2287 0.666496 12.7145 0.696173 12.281C0.734486 11.7214 0.829134 11.2052 1.09653 10.7035C1.33885 10.2489 1.67057 9.90538 2.06219 9.58779C2.42951 9.2899 2.89951 8.97658 3.45097 8.60897L5.11247 7.50131C5.57199 7.19496 6.19286 7.31913 6.49922 7.77866Z" fill="#444444"/>
<path d="M19.0694 0.666748C20.2673 0.66671 21.2663 0.666679 22.0593 0.773299C22.8964 0.885839 23.6521 1.1334 24.2594 1.74069C24.8667 2.34799 25.1142 3.10372 25.2268 3.94078C25.3334 4.7338 25.3334 5.73274 25.3333 6.93068V6.93076L25.3333 15.0001C25.3333 15.5524 24.8856 16.0001 24.3333 16.0001C23.781 16.0001 23.3333 15.5524 23.3333 15.0001V7.00009C23.3333 5.71474 23.3312 4.85132 23.2446 4.20727C23.1619 3.59199 23.0189 3.32866 22.8452 3.15491C22.6714 2.98115 22.4081 2.83819 21.7928 2.75547C21.1488 2.66887 20.2853 2.66675 19 2.66675H11C9.71465 2.66675 8.85124 2.66887 8.20719 2.75547C7.59191 2.83819 7.32858 2.98115 7.15482 3.15491C6.98107 3.32866 6.8381 3.59199 6.75538 4.20727C6.66879 4.85132 6.66667 5.71474 6.66667 7.00008V15.0001C6.66667 15.5524 6.21895 16.0001 5.66667 16.0001C5.11438 16.0001 4.66667 15.5524 4.66667 15.0001L4.66666 6.93075V6.93071C4.66663 5.73276 4.6666 4.73381 4.77322 3.94078C4.88576 3.10372 5.13332 2.34799 5.74061 1.74069C6.3479 1.1334 7.10364 0.885839 7.94069 0.773299C8.73373 0.666679 9.73267 0.66671 10.9306 0.666748H10.9307H19.0693H19.0694Z" fill="#444444"/>
<path fill-rule="evenodd" clip-rule="evenodd" d="M11.3333 12.3333C11.3333 12.8855 11.7811 13.3333 12.3333 13.3333H17.6667C18.219 13.3333 18.6667 12.8855 18.6667 12.3333C18.6667 11.781 18.219 11.3333 17.6667 11.3333H12.3333C11.7811 11.3333 11.3333 11.781 11.3333 12.3333ZM11.3333 6.99992C11.3333 7.5522 11.7811 7.99992 12.3333 7.99992H17.6667C18.219 7.99992 18.6667 7.5522 18.6667 6.99992C18.6667 6.44763 18.219 5.99992 17.6667 5.99992H12.3333C11.7811 5.99992 11.3333 6.44763 11.3333 6.99992Z" fill="#444444"/>
</svg>
