<svg width="22" height="22" viewBox="0 0 22 22" fill="none" xmlns="http://www.w3.org/2000/svg">
<path opacity="0.4" d="M3.25 5.59815L2.33822 6.206C1.92463 6.48171 1.57213 6.71669 1.29664 6.94011C1.00292 7.1783 0.754138 7.43596 0.572397 7.77692C0.371848 8.15317 0.300862 8.54033 0.272128 8.96005C0.24987 9.28516 0.251172 9.67083 0.252682 10.1181L0.252764 10.1424C0.256996 11.402 0.268715 12.6887 0.30125 13.9921L0.302708 14.0506C0.339815 15.5382 0.36975 16.7383 0.540052 17.7039C0.718785 18.7173 1.0621 19.5419 1.7662 20.2461C2.47177 20.9517 3.30305 21.2943 4.32512 21.4729C5.30049 21.6433 6.51556 21.6736 8.02417 21.7113L8.08238 21.7127C10.0335 21.7615 11.9673 21.7615 13.9184 21.7127L13.9766 21.7113C15.4852 21.6736 16.7003 21.6433 17.6757 21.4729C18.6977 21.2943 19.529 20.9517 20.2346 20.2461C20.9387 19.5419 21.282 18.7173 21.4607 17.7039C21.631 16.7383 21.661 15.5382 21.6981 14.0506L21.6995 13.9921C21.732 12.6887 21.7438 11.402 21.748 10.1424L21.7481 10.118C21.7496 9.67086 21.7509 9.28516 21.7286 8.96009C21.6999 8.54035 21.6289 8.15317 21.4283 7.77691C21.2466 7.43596 20.9978 7.1783 20.7041 6.94011C20.4286 6.7167 20.0761 6.48173 19.6626 6.20603L18.75 5.59766L18.75 7.40043L18.8031 7.43586C19.2515 7.73474 19.5448 7.9312 19.7593 8.10515C19.9616 8.26924 20.0496 8.37928 20.1046 8.48248C20.1266 8.52371 20.1465 8.5697 20.164 8.62647L13.7015 12.504C12.9366 12.9629 12.41 13.2778 11.9724 13.4836C11.5502 13.6821 11.2669 13.7507 11.0004 13.7507C10.7339 13.7507 10.4506 13.6821 10.0284 13.4836C9.59079 13.2778 9.06421 12.9629 8.2993 12.504L1.83673 8.62644C1.85422 8.56968 1.87412 8.5237 1.8961 8.48248C1.9511 8.37928 2.03912 8.26924 2.24145 8.10515C2.45596 7.9312 2.74928 7.73474 3.1976 7.43586L3.25 7.40092L3.25 5.59815Z" fill="#FF54EE"/>
<path fill-rule="evenodd" clip-rule="evenodd" d="M8.25 9C8.25 9.41421 8.58579 9.75 9 9.75H13C13.4142 9.75 13.75 9.41421 13.75 9C13.75 8.58579 13.4142 8.25 13 8.25H9C8.58579 8.25 8.25 8.58579 8.25 9ZM8.25 5C8.25 5.41421 8.58579 5.75 9 5.75H13C13.4142 5.75 13.75 5.41421 13.75 5C13.75 4.58579 13.4142 4.25 13 4.25H9C8.58579 4.25 8.25 4.58579 8.25 5Z" fill="#FF54EE"/>
<path d="M14.054 0.250001H7.94996C7.05151 0.249974 6.30225 0.249951 5.70748 0.329916C5.07968 0.41432 4.51288 0.599991 4.05741 1.05546C3.60194 1.51093 3.41627 2.07773 3.33187 2.70552C3.2519 3.30029 3.25193 4.04949 3.25195 4.94794L3.25196 9.47572L4.75196 10.3757V5C4.75196 4.03599 4.75355 3.38843 4.81849 2.9054C4.88053 2.44393 4.98776 2.24644 5.11807 2.11612C5.24839 1.9858 5.44589 1.87858 5.90735 1.81654C6.39039 1.7516 7.03795 1.75 8.00196 1.75H14.002C14.966 1.75 15.6135 1.7516 16.0966 1.81654C16.558 1.87858 16.7555 1.9858 16.8858 2.11612C17.0162 2.24644 17.1234 2.44393 17.1854 2.9054C17.2504 3.38843 17.252 4.03599 17.252 5V10.375L18.752 9.47504L18.752 4.94801C18.752 4.04954 18.752 3.3003 18.672 2.70552C18.5876 2.07773 18.402 1.51093 17.9465 1.05546C17.491 0.599991 16.9242 0.41432 16.2964 0.329916C15.7017 0.249951 14.9524 0.249974 14.054 0.250001Z" fill="#FF54EE"/>
</svg>
