<svg width="20" height="22" viewBox="0 0 20 22" fill="none" xmlns="http://www.w3.org/2000/svg">
<path opacity="0.4" d="M2.4094 10.4516C2.62188 6.41446 5.95728 3.25 10 3.25C14.0427 3.25 17.3781 6.41446 17.5906 10.4516C17.5997 10.6241 17.6064 10.7893 17.6129 10.9485C17.6351 11.49 17.6544 11.9615 17.7525 12.4133C17.8698 12.9531 18.0867 13.3775 18.5279 13.7084C19.2972 14.2854 19.75 15.191 19.75 16.1527C19.75 17.534 18.6628 18.75 17.2 18.75H2.8C1.33719 18.75 0.25 17.534 0.25 16.1527C0.25 15.191 0.702782 14.2854 1.47213 13.7084C1.91329 13.3775 2.13025 12.9531 2.24749 12.4133C2.34561 11.9615 2.3649 11.49 2.38705 10.9485V10.9485L2.38705 10.9485C2.39356 10.7893 2.40032 10.6241 2.4094 10.4516Z" fill="#FF6262"/>
<path d="M6.07019 18.75C6.42125 20.6006 8.0472 22 9.99999 22C11.9528 22 13.5787 20.6006 13.9298 18.75H11.8546C11.5579 19.483 10.8393 20 9.99999 20C9.16065 20 8.44207 19.483 8.14537 18.75H6.07019Z" fill="#FF6262"/>
<path d="M10 0C9.51698 0 8.97367 0.0829559 8.52856 0.374337C8.03476 0.697591 7.75 1.22083 7.75 1.875C7.75 2.42284 7.94675 2.993 8.25368 3.45184C8.81491 3.31978 9.39966 3.25 10 3.25C10.6003 3.25 11.1851 3.31978 11.7463 3.45184C12.0532 2.993 12.25 2.42284 12.25 1.875C12.25 1.22083 11.9652 0.697591 11.4714 0.374337C11.0263 0.0829559 10.483 0 10 0Z" fill="#FF6262"/>
</svg>
