<svg width="22" height="20" viewBox="0 0 22 20" fill="none" xmlns="http://www.w3.org/2000/svg">
<g opacity="0.6">
<path d="M3.44251 12.6547C6.53803 10.7818 10.4621 10.7818 13.5576 12.6547C13.6546 12.7134 13.7757 12.7828 13.9136 12.8618C14.5263 13.2128 15.4716 13.7545 16.1182 14.3976C16.5233 14.8005 16.917 15.3398 16.9887 16.0063C17.0652 16.7171 16.7585 17.3796 16.158 17.9609C15.1412 18.9452 13.9049 19.75 12.2968 19.75H4.70332C3.09527 19.75 1.85892 18.9452 0.842094 17.9609C0.241691 17.3796 -0.065027 16.7171 0.0114449 16.0063C0.0831343 15.3398 0.476879 14.8005 0.881945 14.3976C1.52853 13.7545 2.47387 13.2128 3.08652 12.8618C3.22445 12.7828 3.34551 12.7134 3.44251 12.6547Z" fill="#64C7FF"/>
<path d="M3.75015 5C3.75015 2.37665 5.8768 0.25 8.50015 0.25C11.1235 0.25 13.2502 2.37665 13.2502 5C13.2502 7.62335 11.1235 9.75 8.50015 9.75C5.8768 9.75 3.75015 7.62335 3.75015 5Z" fill="#64C7FF"/>
</g>
<path fill-rule="evenodd" clip-rule="evenodd" d="M14.9999 3C14.9999 2.44772 15.4476 2 15.9999 2L20.9999 2C21.5522 2 21.9999 2.44772 21.9999 3C21.9999 3.55229 21.5522 4 20.9999 4L15.9999 4C15.4476 4 14.9999 3.55228 14.9999 3ZM14.9999 6C14.9999 5.44772 15.4476 5 15.9999 5L20.9999 5C21.5522 5 21.9999 5.44772 21.9999 6C21.9999 6.55229 21.5522 7 20.9999 7L15.9999 7C15.4476 7 14.9999 6.55228 14.9999 6ZM17.9999 9C17.9999 8.44772 18.4476 8 18.9999 8H20.9999C21.5522 8 21.9999 8.44772 21.9999 9C21.9999 9.55228 21.5522 10 20.9999 10H18.9999C18.4476 10 17.9999 9.55228 17.9999 9Z" fill="#64C7FF"/>
</svg>
