<svg width="22" height="22" viewBox="0 0 22 22" fill="none" xmlns="http://www.w3.org/2000/svg">
<path opacity="0.4" d="M11.0833 0.249939H9.91672C7.96586 0.249927 6.42941 0.249917 5.22885 0.40236C3.99987 0.558412 3.00965 0.88569 2.22552 1.62625C1.43535 2.37253 1.0806 3.32462 0.912549 4.50515C0.749969 5.64722 0.749983 7.10535 0.75 8.94061V13.0593C0.749982 14.8945 0.749968 16.3527 0.912548 17.4947C1.0806 18.6753 1.43534 19.6273 2.22552 20.3736C3.00965 21.1142 3.99987 21.4415 5.22885 21.5975C6.42941 21.75 7.96586 21.75 9.91674 21.7499H11.0833C11.4473 21.7499 11.7968 21.7499 12.1324 21.749C12.5039 21.7479 12.6897 21.7473 12.7776 21.657C12.8656 21.5667 12.8602 21.3347 12.8494 20.8708C12.8436 20.6244 12.8713 20.3707 12.9346 20.1239L13.361 18.6335C13.4026 18.4883 13.4233 18.4158 13.4112 18.3475C13.3991 18.2792 13.3508 18.213 13.2544 18.0807C12.6237 17.2157 12.25 16.149 12.25 14.9951C12.25 12.0947 14.6041 9.74994 17.5 9.74994C18.1263 9.74994 18.7272 9.85959 19.2844 10.0608C19.758 10.2318 19.9948 10.3173 20.1224 10.2277C20.25 10.1381 20.25 9.90958 20.25 9.45252V8.94068C20.25 7.10541 20.25 5.64723 20.0875 4.50515C19.9194 3.32462 19.5647 2.37253 18.7745 1.62625C17.9904 0.885691 17.0001 0.558413 15.7712 0.402361C14.5706 0.249917 13.0342 0.249927 11.0833 0.249939Z" fill="#FF9900"/>
<path fill-rule="evenodd" clip-rule="evenodd" d="M5.5 6C5.5 5.44772 5.94772 5 6.5 5H14.5C15.0523 5 15.5 5.44772 15.5 6C15.5 6.55228 15.0523 7 14.5 7H6.5C5.94772 7 5.5 6.55228 5.5 6ZM5.5 11C5.5 10.4477 5.94772 10 6.5 10H10.5C11.0523 10 11.5 10.4477 11.5 11C11.5 11.5523 11.0523 12 10.5 12H6.5C5.94772 12 5.5 11.5523 5.5 11Z" fill="#FF9900"/>
<path fill-rule="evenodd" clip-rule="evenodd" d="M20.7337 19.7587C20.6833 19.555 20.605 19.2999 20.5121 18.9971L20.1257 17.7383C20.8177 17.0533 21.25 16.087 21.25 15.0163C21.25 12.9362 19.6204 11.25 17.6103 11.25H17.3897C15.3796 11.25 13.75 12.9362 13.75 15.0163C13.75 16.087 14.1823 17.0533 14.8743 17.7383L14.4879 18.9971C14.395 19.2998 14.3167 19.555 14.2663 19.7587C14.2184 19.9523 14.1692 20.1946 14.2019 20.4369C14.2998 21.1635 14.8841 21.7472 15.6224 21.75C15.8683 21.7509 16.0967 21.6562 16.266 21.5775C16.4465 21.4936 16.6881 21.3624 16.9495 21.2205C17.2106 21.0787 17.2648 21.0526 17.3117 21.0379C17.435 20.9994 17.565 20.9994 17.6883 21.0379C17.7352 21.0526 17.7893 21.0786 18.0504 21.2204C18.3118 21.3624 18.5535 21.4936 18.734 21.5775C18.9033 21.6562 19.1317 21.7509 19.3776 21.75C20.1159 21.7472 20.7002 21.1635 20.7981 20.4369C20.8308 20.1946 20.7816 19.9523 20.7337 19.7587ZM15.5484 20.0983C15.5882 19.9371 15.6547 19.7196 15.7553 19.392L16.0262 18.5092C16.4476 18.6855 16.908 18.7826 17.3896 18.7826H17.6102C18.0918 18.7826 18.5522 18.6855 18.9736 18.5092L19.2445 19.392C19.3451 19.7196 19.4116 19.9371 19.4514 20.0983C19.5109 20.2354 19.5592 20.4732 19.2762 20.3281C19.1373 20.2636 18.9097 20.1403 18.6245 19.9854C18.4271 19.878 18.2542 19.784 18.0703 19.7266C17.6978 19.6104 17.302 19.6104 16.9294 19.7266C16.7456 19.784 16.5727 19.878 16.3753 19.9854C16.0901 20.1403 15.8625 20.2636 15.7236 20.3281C15.4787 20.4531 15.5047 20.227 15.5484 20.0983Z" fill="#FF9900"/>
</svg>
