<svg width="20" height="22" viewBox="0 0 20 22" fill="none" xmlns="http://www.w3.org/2000/svg">
<path opacity="0.4" d="M0.743164 4C0.743164 1.79086 2.53403 0 4.74316 0H16.7432C17.2954 0 17.7432 0.447715 17.7432 1C17.7432 1.55228 17.2954 2 16.7432 2H4.74316C3.63859 2 2.74316 2.89543 2.74316 4C2.74316 5.10457 3.63859 6 4.74316 6H14.5V5.5C14.5 5.22386 14.2761 5 14 5H5.5C4.94772 5 4.5 4.55228 4.5 4C4.5 3.44772 4.94772 3 5.5 3H14C15.3807 3 16.5 4.11929 16.5 5.5L16.5 6.25C18.0188 6.25 19.25 7.48122 19.25 9V13.0564C19.25 14.8942 19.25 16.3498 19.0969 17.489C18.9392 18.6614 18.6071 19.6104 17.8588 20.3588C17.1104 21.1071 16.1614 21.4392 14.989 21.5969C13.8498 21.75 12.3942 21.75 10.5565 21.75H9.44359C7.60585 21.75 6.15018 21.75 5.01098 21.5969C3.83856 21.4392 2.88961 21.1071 2.14124 20.3588C1.39288 19.6104 1.06076 18.6614 0.903136 17.489C0.749973 16.3498 0.749985 14.8942 0.75 13.0564V4.23582C0.745464 4.15779 0.743164 4.07917 0.743164 4Z" fill="#639EFF"/>
<path fill-rule="evenodd" clip-rule="evenodd" d="M13.75 12C13.75 12.4142 13.4142 12.75 13 12.75H7C6.58579 12.75 6.25 12.4142 6.25 12C6.25 11.5858 6.58579 11.25 7 11.25H13C13.4142 11.25 13.75 11.5858 13.75 12ZM10 16.75C10.4142 16.75 10.75 16.4142 10.75 16C10.75 15.5858 10.4142 15.25 10 15.25H7C6.58579 15.25 6.25 15.5858 6.25 16C6.25 16.4142 6.58579 16.75 7 16.75H10Z" fill="#639EFF"/>
</svg>
